0
SECTION
2
HEADER
9
$INSUNITS
70
4
9
$ACADVER
1
AC1014
9
$HANDSEED
5
FFFF
0
ENDSEC
0
SECTION
2
TABLES
0
TABLE
2
VPORT
5
8
100
AcDbSymbolTable
0
ENDTAB
0
TABLE
2
LTYPE
5
5
100
AcDbSymbolTable
0
LTYPE
5
14
100
AcDbSymbolTableRecord
100
AcDbLinetypeTableRecord
2
BYBLOCK
70
0
0
LTYPE
5
15
100
AcDbSymbolTableRecord
100
AcDbLinetypeTableRecord
2
BYLAYER
70
0
0
ENDTAB
0
TABLE
2
LAYER
5
2
100
AcDbSymbolTable
70
2
0
LAYER
5
50
100
AcDbSymbolTableRecord
100
AcDbLayerTableRecord
2
0
70
0
6
CONTINUOUS
0
ENDTAB
0
TABLE
2
STYLE
5
3
100
AcDbSymbolTable
70
1
0
STYLE
5
11
100
AcDbSymbolTableRecord
100
AcDbTextStyleTableRecord
2
STANDARD
70
0
0
ENDTAB
0
TABLE
2
VIEW
5
6
100
AcDbSymbolTable
70
0
0
ENDTAB
0
TABLE
2
UCS
5
7
100
AcDbSymbolTable
70
0
0
ENDTAB
0
TABLE
2
APPID
5
9
100
AcDbSymbolTable
70
2
0
APPID
5
12
100
AcDbSymbolTableRecord
100
AcDbRegAppTableRecord
2
ACAD
70
0
0
ENDTAB
0
TABLE
2
DIMSTYLE
5
A
100
AcDbSymbolTable
70
1
0
ENDTAB
0
TABLE
2
BLOCK_RECORD
5
1
100
AcDbSymbolTable
70
1
0
BLOCK_RECORD
5
1F
100
AcDbSymbolTableRecord
100
AcDbBlockTableRecord
2
*MODEL_SPACE
0
BLOCK_RECORD
5
1B
100
AcDbSymbolTableRecord
100
AcDbBlockTableRecord
2
*PAPER_SPACE
0
ENDTAB
0
ENDSEC
0
SECTION
2
BLOCKS
0
BLOCK
5
20
100
AcDbEntity
100
AcDbBlockBegin
2
*MODEL_SPACE
0
ENDBLK
5
21
100
AcDbEntity
100
AcDbBlockEnd
0
BLOCK
5
1C
100
AcDbEntity
100
AcDbBlockBegin
2
*PAPER_SPACE
0
ENDBLK
5
1D
100
AcDbEntity
100
AcDbBlockEnd
0
ENDSEC
0
SECTION
2
ENTITIES
0
LWPOLYLINE
5
100
100
AcDbEntity
8
0
100
AcDbPolyline
90
4
70
1
43
0.0
10
77.870000000000005
20
-15
10
79.870000000000005
20
-15
10
79.870000000000005
20
-30.05025253169417
10
77.870000000000005
20
-30.05025253169417
0
LWPOLYLINE
5
101
100
AcDbEntity
8
0
100
AcDbPolyline
90
30
70
1
43
0.0
10
0
20
0
10
-20.046305283725015
20
-1.7763568394002505e-14
10
-20.046305283725015
20
19.999999999999982
10
-97.990508806208368
20
19.999999999999982
10
-97.990508806208368
20
-1.7763568394002505e-14
10
-116.96261056745001
20
-1.7763568394002505e-14
10
-116.96261056745001
20
-45.05025253169417
10
-97.990508806208368
20
-45.05025253169417
10
-97.990508806208368
20
-65.05025253169417
10
-20.046305283725019
20
-65.05025253169417
10
-20.046305283725015
20
-45.05025253169417
10
0
20
-45.050252531694177
10
0
20
-47.39512626584709
10
-17.655126265847052
20
-47.39512626584709
10
-17.655126265847052
20
-67.469329788330427
10
99.870000000000019
20
-67.469329788330427
10
99.870000000000019
20
-47.497228027088752
10
79.870000000000005
20
-47.497228027088752
10
79.870000000000005
20
-45.05025253169417
10
119.87000000000002
20
-45.05025253169417
10
119.87000000000002
20
-29.050252531694166
10
119.87000000000002
20
-16
10
119.87000000000002
20
0
10
79.870000000000005
20
0
10
79.870000000000005
20
2.4469754953945788
10
99.870000000000019
20
2.4469754953945788
10
99.870000000000019
20
22.419077256636246
10
-17.655126265847088
20
22.419077256636246
10
-17.655126265847088
20
2.3448737341529124
10
0
20
2.3448737341529124
0
LINE
5
102
100
AcDbEntity
8
0
100
AcDbLine
10
79.870000000000005
20
-45.05025253169417
30
-1.7354939914863233e-28
11
0
21
-45.050252531694177
31
-4.7331654313260708e-29
0
LINE
5
103
100
AcDbEntity
8
0
100
AcDbLine
10
0
20
0
30
0
11
79.870000000000005
21
0
31
-1.735493991486226e-28
0
LINE
5
104
100
AcDbEntity
8
0
100
AcDbLine
10
79.870000000000005
20
0
30
-1.735493991486226e-28
11
79.870000000000005
21
-15
31
-1.735493991486226e-28
0
LINE
5
105
100
AcDbEntity
8
0
100
AcDbLine
10
79.870000000000005
20
-30.05025253169417
30
-1.735493991486226e-28
11
79.870000000000005
21
-45.05025253169417
31
-1.7354939914863233e-28
0
LINE
5
106
100
AcDbEntity
8
0
100
AcDbLine
10
119.87000000000002
20
-45.05025253169417
30
-1.735493991486226e-28
11
119.87000000000002
21
-29.050252531694166
31
-1.7354939914861287e-28
0
LINE
5
107
100
AcDbEntity
8
0
100
AcDbLine
10
119.87000000000002
20
-29.050252531694166
30
-1.7354939914861287e-28
11
119.87000000000002
21
-16
31
-1.735493991486226e-28
0
LINE
5
108
100
AcDbEntity
8
0
100
AcDbLine
10
119.87000000000002
20
-16
30
-1.735493991486226e-28
11
119.87000000000002
21
0
31
-1.735493991486226e-28
0
LINE
5
109
100
AcDbEntity
8
0
100
AcDbLine
10
119.87000000000002
20
0
30
-1.735493991486226e-28
11
79.870000000000005
21
0
31
-1.735493991486226e-28
0
LINE
5
110
100
AcDbEntity
8
0
100
AcDbLine
10
79.870000000000005
20
-45.05025253169417
30
-1.7354939914863233e-28
11
119.87000000000002
21
-45.05025253169417
31
-1.735493991486226e-28
0
LINE
5
111
100
AcDbEntity
8
0
100
AcDbLine
10
99.870000000000019
20
-67.469329788330427
30
7.8886090522101181e-29
11
-17.655126265847052
21
-67.469329788330427
31
-4.7331654313150908e-29
0
LINE
5
112
100
AcDbEntity
8
0
100
AcDbLine
10
0
20
-47.39512626584709
30
0
11
0
21
-68.529989960110257
31
0
0
LINE
5
113
100
AcDbEntity
8
0
100
AcDbLine
10
0
20
-47.39512626584709
30
0
11
-17.655126265847052
21
-47.39512626584709
31
0
0
LINE
5
114
100
AcDbEntity
8
0
100
AcDbLine
10
-17.655126265847052
20
-67.469329788330427
30
-4.7331654313150908e-29
11
-17.655126265847052
21
-47.39512626584709
31
0
0
LINE
5
115
100
AcDbEntity
8
0
100
AcDbLine
10
0
20
-47.39512626584709
30
0
11
0
21
-45.050252531694177
31
-4.7331654313260708e-29
0
LINE
5
116
100
AcDbEntity
8
0
100
AcDbLine
10
79.870000000000005
20
-45.05025253169417
30
-1.7354939914863233e-28
11
79.870000000000005
21
-47.497228027088752
31
-1.735493991486226e-28
0
LINE
5
117
100
AcDbEntity
8
0
100
AcDbLine
10
79.870000000000005
20
-47.497228027088752
30
-1.735493991486226e-28
11
0
21
-47.39512626584709
31
0
0
LINE
5
118
100
AcDbEntity
8
0
100
AcDbLine
10
79.870000000000005
20
-47.497228027088752
30
-1.735493991486226e-28
11
99.870000000000019
21
-47.497228027088752
31
-1.7354939914873241e-28
0
LINE
5
119
100
AcDbEntity
8
0
100
AcDbLine
10
99.870000000000019
20
-67.469329788330427
30
7.8886090522101181e-29
11
99.870000000000019
21
-47.497228027088752
31
-1.7354939914873241e-28
0
LINE
5
120
100
AcDbEntity
8
0
100
AcDbLine
10
79.870000000000005
20
-47.497228027088752
30
-1.735493991486226e-28
11
79.870000000000005
21
-68.529989960110257
31
-1.735493991486226e-28
0
LINE
5
121
100
AcDbEntity
8
0
100
AcDbLine
10
0
20
2.3448737341529124
30
-4.7331654313260708e-29
11
0
21
0
31
0
0
LINE
5
122
100
AcDbEntity
8
0
100
AcDbLine
10
0
20
2.3448737341529124
30
-4.7331654313260708e-29
11
-17.655126265847088
21
2.3448737341529124
31
-4.7331654313573809e-29
0
LINE
5
123
100
AcDbEntity
8
0
100
AcDbLine
10
0
20
2.3448737341529124
30
-4.7331654313260708e-29
11
-2.7326990027412504e-15
21
22.419077256636246
31
-4.7331654313260708e-29
0
LINE
5
124
100
AcDbEntity
8
0
100
AcDbLine
10
-2.7326990027412504e-15
20
22.419077256636246
30
-4.7331654313260708e-29
11
-17.655126265847088
21
22.419077256636246
31
-1.735493991486226e-28
0
LINE
5
125
100
AcDbEntity
8
0
100
AcDbLine
10
-17.655126265847088
20
22.419077256636246
30
-1.735493991486226e-28
11
-17.655126265847088
21
2.3448737341529124
31
-4.7331654313573809e-29
0
LINE
5
126
100
AcDbEntity
8
0
100
AcDbLine
10
-2.7326990027412504e-15
20
22.419077256636246
30
-4.7331654313260708e-29
11
99.870000000000019
21
22.419077256636246
31
-1.735493991483112e-28
0
LINE
5
127
100
AcDbEntity
8
0
100
AcDbLine
10
79.870000000000005
20
0
30
-1.735493991486226e-28
11
79.870000000000005
21
2.4469754953945788
31
-1.7354939914862089e-28
0
LINE
5
128
100
AcDbEntity
8
0
100
AcDbLine
10
79.870000000000005
20
2.4469754953945788
30
-1.7354939914862089e-28
11
0
21
2.3448737341529124
31
-4.7331654313260708e-29
0
LINE
5
129
100
AcDbEntity
8
0
100
AcDbLine
10
99.870000000000019
20
2.4469754953945788
30
-1.735493991486226e-28
11
79.870000000000005
21
2.4469754953945788
31
-1.7354939914862089e-28
0
LINE
5
130
100
AcDbEntity
8
0
100
AcDbLine
10
99.870000000000019
20
2.4469754953945788
30
-1.735493991486226e-28
11
99.870000000000019
21
22.419077256636246
31
-1.735493991483112e-28
0
LINE
5
131
100
AcDbEntity
8
0
100
AcDbLine
10
79.870000000000005
20
2.4469754953945788
30
-1.7354939914862089e-28
11
79.870000000000005
21
22.419077256636246
31
-1.4827299085051395e-28
0
LINE
5
132
100
AcDbEntity
8
0
100
AcDbLine
10
0
20
-45.050252531694177
30
-4.7331654313260708e-29
11
-20.046305283725015
21
-45.05025253169417
31
-4.7331654313260798e-29
0
LINE
5
133
100
AcDbEntity
8
0
100
AcDbLine
10
0
20
0
30
0
11
-20.046305283725015
21
-1.7763568394002505e-14
31
0
0
LINE
5
134
100
AcDbEntity
8
0
100
AcDbLine
10
0
20
0
30
0
11
0
21
-45.050252531694177
31
-4.7331654313260708e-29
0
LINE
5
135
100
AcDbEntity
8
0
100
AcDbLine
10
-20.046305283725015
20
-45.05025253169417
30
-4.7331654313260798e-29
11
-20.046305283725015
21
-1.7763568394002505e-14
31
0
0
LINE
5
136
100
AcDbEntity
8
0
100
AcDbLine
10
-97.990508806208368
20
-1.7763568394002505e-14
30
-1.735493991486226e-28
11
-20.046305283725015
21
-1.7763568394002505e-14
31
0
0
LINE
5
137
100
AcDbEntity
8
0
100
AcDbLine
10
-20.046305283725015
20
19.999999999999982
30
-4.7331654313260708e-29
11
-20.046305283725015
21
-1.7763568394002505e-14
31
0
0
LINE
5
138
100
AcDbEntity
8
0
100
AcDbLine
10
-20.046305283725015
20
19.999999999999982
30
-4.7331654313260708e-29
11
-97.990508806208368
21
19.999999999999982
31
-4.7331654313260708e-29
0
LINE
5
139
100
AcDbEntity
8
0
100
AcDbLine
10
-97.990508806208368
20
-1.7763568394002505e-14
30
-1.735493991486226e-28
11
-97.990508806208368
21
19.999999999999982
31
-4.7331654313260708e-29
0
LINE
5
140
100
AcDbEntity
8
0
100
AcDbLine
10
-97.990508806208368
20
-1.7763568394002505e-14
30
-1.735493991486226e-28
11
-97.990508806208368
21
-45.05025253169417
31
-1.735493991486226e-28
0
LINE
5
141
100
AcDbEntity
8
0
100
AcDbLine
10
-20.046305283725015
20
-45.05025253169417
30
-4.7331654313260798e-29
11
-97.990508806208368
21
-45.05025253169417
31
-1.735493991486226e-28
0
LINE
5
142
100
AcDbEntity
8
0
100
AcDbLine
10
-97.990508806208368
20
-45.05025253169417
30
-1.735493991486226e-28
11
-116.96261056745001
21
-45.05025253169417
31
-1.735493991486226e-28
0
LINE
5
143
100
AcDbEntity
8
0
100
AcDbLine
10
-116.96261056745001
20
-45.05025253169417
30
-1.735493991486226e-28
11
-116.96261056745001
21
-1.7763568394002505e-14
31
-1.735493991486226e-28
0
LINE
5
144
100
AcDbEntity
8
0
100
AcDbLine
10
-97.990508806208368
20
-1.7763568394002505e-14
30
-1.735493991486226e-28
11
-116.96261056745001
21
-1.7763568394002505e-14
31
-1.735493991486226e-28
0
LINE
5
145
100
AcDbEntity
8
0
100
AcDbLine
10
-20.046305283725015
20
-45.05025253169417
30
-4.7331654313260798e-29
11
-20.046305283725019
21
-65.05025253169417
31
-1.735493991486226e-28
0
LINE
5
146
100
AcDbEntity
8
0
100
AcDbLine
10
-20.046305283725019
20
-65.05025253169417
30
-1.735493991486226e-28
11
-97.990508806208368
21
-65.05025253169417
31
-1.7354939914862255e-28
0
LINE
5
147
100
AcDbEntity
8
0
100
AcDbLine
10
-97.990508806208368
20
-65.05025253169417
30
-1.7354939914862255e-28
11
-97.990508806208368
21
-45.05025253169417
31
-1.735493991486226e-28
0
LWPOLYLINE
5
148
100
AcDbEntity
8
0
100
AcDbPolyline
90
4
70
1
43
0.0
10
121.87
20
-28.875275204642321
10
121.86999999999999
20
-16.174977327051849
10
119.87000000000002
20
-16
10
119.87000000000002
20
-29.050252531694166
0
LINE
5
149
100
AcDbEntity
8
0
100
AcDbLine
10
79.870000000000005
20
-30.05025253169417
30
-1.735493991486226e-28
11
77.870000000000005
21
-30.05025253169417
31
-1.735493991486226e-28
0
LINE
5
150
100
AcDbEntity
8
0
100
AcDbLine
10
79.870000000000005
20
-15
30
-1.735493991486226e-28
11
77.870000000000005
21
-15
31
-1.735493991486226e-28
0
LINE
5
151
100
AcDbEntity
8
0
100
AcDbLine
10
77.870000000000005
20
-15
30
-1.735493991486226e-28
11
77.870000000000005
21
-30.05025253169417
31
-1.735493991486226e-28
0
LINE
5
152
100
AcDbEntity
8
0
100
AcDbLine
10
79.870000000000005
20
-30.05025253169417
30
-1.735493991486226e-28
11
79.870000000000005
21
-15
31
-1.735493991486226e-28
0
ENDSEC
0
SECTION
2
OBJECTS
0
DICTIONARY
5
C
100
AcDbDictionary
3
ACAD_GROUP
350
D
3
ACAD_MLINESTYLE
350
17
0
DICTIONARY
5
D
100
AcDbDictionary
0
DICTIONARY
5
1A
330
C
100
AcDbDictionary
0
DICTIONARY
5
17
100
AcDbDictionary
0
ENDSEC
0
EOF
