0
SECTION
2
HEADER
9
$INSUNITS
70
4
9
$ACADVER
1
AC1014
9
$HANDSEED
5
FFFF
0
ENDSEC
0
SECTION
2
TABLES
0
TABLE
2
VPORT
5
8
100
AcDbSymbolTable
0
ENDTAB
0
TABLE
2
LTYPE
5
5
100
AcDbSymbolTable
0
LTYPE
5
14
100
AcDbSymbolTableRecord
100
AcDbLinetypeTableRecord
2
BYBLOCK
70
0
0
LTYPE
5
15
100
AcDbSymbolTableRecord
100
AcDbLinetypeTableRecord
2
BYLAYER
70
0
0
ENDTAB
0
TABLE
2
LAYER
5
2
100
AcDbSymbolTable
70
2
0
LAYER
5
50
100
AcDbSymbolTableRecord
100
AcDbLayerTableRecord
2
0
70
0
6
CONTINUOUS
0
ENDTAB
0
TABLE
2
STYLE
5
3
100
AcDbSymbolTable
70
1
0
STYLE
5
11
100
AcDbSymbolTableRecord
100
AcDbTextStyleTableRecord
2
STANDARD
70
0
0
ENDTAB
0
TABLE
2
VIEW
5
6
100
AcDbSymbolTable
70
0
0
ENDTAB
0
TABLE
2
UCS
5
7
100
AcDbSymbolTable
70
0
0
ENDTAB
0
TABLE
2
APPID
5
9
100
AcDbSymbolTable
70
2
0
APPID
5
12
100
AcDbSymbolTableRecord
100
AcDbRegAppTableRecord
2
ACAD
70
0
0
ENDTAB
0
TABLE
2
DIMSTYLE
5
A
100
AcDbSymbolTable
70
1
0
ENDTAB
0
TABLE
2
BLOCK_RECORD
5
1
100
AcDbSymbolTable
70
1
0
BLOCK_RECORD
5
1F
100
AcDbSymbolTableRecord
100
AcDbBlockTableRecord
2
*MODEL_SPACE
0
BLOCK_RECORD
5
1B
100
AcDbSymbolTableRecord
100
AcDbBlockTableRecord
2
*PAPER_SPACE
0
ENDTAB
0
ENDSEC
0
SECTION
2
BLOCKS
0
BLOCK
5
20
100
AcDbEntity
100
AcDbBlockBegin
2
*MODEL_SPACE
0
ENDBLK
5
21
100
AcDbEntity
100
AcDbBlockEnd
0
BLOCK
5
1C
100
AcDbEntity
100
AcDbBlockBegin
2
*PAPER_SPACE
0
ENDBLK
5
1D
100
AcDbEntity
100
AcDbBlockEnd
0
ENDSEC
0
SECTION
2
ENTITIES
0
LWPOLYLINE
5
100
100
AcDbEntity
8
OUTER_PROFILES
100
AcDbPolyline
90
32
70
1
43
0.0
10
18.715786437626925
20
68.529989960110257
10
-99.870000000000019
20
68.529989960110257
10
-99.870000000000019
20
48.557888198868596
10
-79.870000000000005
20
48.557888198868596
10
-79.870000000000005
20
47.17157287525383
10
-119.87000000000002
20
47.17157287525383
10
-119.87000000000002
20
31.171572875253833
10
-121.87
20
30.996595548201988
10
-121.86999999999999
20
16.174977327051849
10
-119.87000000000002
20
16
10
-119.87000000000002
20
0
10
-79.870000000000005
20
0
10
-79.870000000000005
20
-1.3863153236147419
10
-99.870000000000019
20
-1.3863153236147419
10
-99.870000000000019
20
-21.35841708485642
10
18.715786437626907
20
-21.358417084856409
10
18.715786437626907
20
-1.2842135623730755
10
0
20
-1.2842135623730755
10
0
20
0
10
20.046305283725015
20
1.7763568394002505e-14
10
20.046305283725019
20
-19.999999999999982
10
97.990508806208368
20
-19.999999999999982
10
97.990508806208368
20
1.7763568394002505e-14
10
116.96261056745001
20
1.7763568394002505e-14
10
116.96261056745001
20
47.17157287525383
10
97.990508806208368
20
47.17157287525383
10
97.990508806208368
20
67.17157287525383
10
20.046305283725019
20
67.17157287525383
10
20.046305283725015
20
47.17157287525383
10
0
20
47.171572875253851
10
0
20
48.455786437626926
10
18.715786437626925
20
48.455786437626926
0
LWPOLYLINE
5
101
100
AcDbEntity
8
INTERIOR_PROFILES
100
AcDbPolyline
90
4
70
1
43
0.0
10
-79.870000000000005
20
32.17157287525383
10
-77.870000000000005
20
32.17157287525383
10
-77.870000000000005
20
15
10
-79.870000000000005
20
15
0
LINE
5
102
100
AcDbEntity
8
BEND
100
AcDbLine
10
-1.2842135623730755
20
48.557888198868596
30
-4.1218908747551864e-14
11
-79.870000000000005
21
48.557888198868596
31
-2.5641117800647411e-12
0
LINE
5
103
100
AcDbEntity
8
BEND
100
AcDbLine
10
20.046305283725015
20
1.7763568394002505e-14
30
6.5068125910815512e-13
11
20.046305283725015
21
47.17157287525383
31
6.3325992703409178e-13
0
LINE
5
104
100
AcDbEntity
8
BEND
100
AcDbLine
10
-79.870000000000005
20
-1.3863153236147419
30
-2.5652697078394951e-12
11
-1.2842135623730933
21
-1.3863153236147419
31
-4.3114094290517542e-14
0
LINE
5
105
100
AcDbEntity
8
BEND
100
AcDbLine
10
97.990508806208368
20
1.7763568394002505e-14
30
2.9549039069819582e-12
11
97.990508806208368
21
47.17157287525383
31
2.9566384251285677e-12
0
LINE
5
106
100
AcDbEntity
8
BEND
100
AcDbLine
10
0.10210176124167536
20
0
30
3.277120957832036e-15
11
0.10210176124167536
21
47.17157287525383
31
1.2714016667145877e-14
0
LINE
5
107
100
AcDbEntity
8
BEND_EXTENT
100
AcDbLine
10
98.092610567450009
20
47.17157287525383
30
2.9555911761845665e-12
11
98.092610567450009
21
1.7763568394002505e-14
31
2.9555911761845665e-12
0
LINE
5
108
100
AcDbEntity
8
BEND_EXTENT
100
AcDbLine
10
97.888407044966669
20
1.7763568394002505e-14
30
2.9509281885825379e-12
11
97.888407044966669
21
47.17157287525383
31
2.9509281885825379e-12
0
LINE
5
109
100
AcDbEntity
8
BEND_EXTENT
100
AcDbLine
10
20.14840704496666
20
47.17157287525383
30
6.3337299468024625e-13
11
20.14840704496666
21
1.7763568394002505e-14
31
6.3337299468024625e-13
0
LINE
5
110
100
AcDbEntity
8
BEND_EXTENT
100
AcDbLine
10
19.944203522483338
20
1.7763568394002505e-14
30
6.4014142906008502e-13
11
19.944203522483338
21
47.17157287525383
31
6.4014142906008502e-13
0
LINE
5
111
100
AcDbEntity
8
BEND_EXTENT
100
AcDbLine
10
-79.870000000000005
20
48.659989960110259
30
-2.5635566685524286e-12
11
-1.2842135623730755
21
48.659989960110259
31
-4.1218908747551978e-14
0
LINE
5
112
100
AcDbEntity
8
BEND_EXTENT
100
AcDbLine
10
-1.2842135623730755
20
48.455786437626926
30
-4.1218908747551864e-14
11
-79.870000000000005
21
48.455786437626926
31
-2.5635566685524286e-12
0
LINE
5
113
100
AcDbEntity
8
BEND_EXTENT
100
AcDbLine
10
-1.2842135623730933
20
-1.4884170848564082
30
-4.4549577821427902e-14
11
-79.870000000000005
21
-1.4884170848564082
31
-2.5666097818701477e-12
0
LINE
5
114
100
AcDbEntity
8
BEND_EXTENT
100
AcDbLine
10
-79.870000000000005
20
-1.2842135623730755
30
-2.5635566685524286e-12
11
-1.2842135623731465
21
-1.2842135623730755
31
-4.1218908747553997e-14
0
LINE
5
115
100
AcDbEntity
8
BEND_EXTENT
100
AcDbLine
10
0.20420352248332857
20
47.17157287525383
30
6.5542419156633613e-15
11
0.20420352248332857
21
0
31
-1.1209326478339143e-14
0
LINE
5
116
100
AcDbEntity
8
BEND_EXTENT
100
AcDbLine
10
0
20
0
30
0
11
0
21
47.171572875253851
31
0
0
ENDSEC
0
SECTION
2
OBJECTS
0
DICTIONARY
5
C
100
AcDbDictionary
3
ACAD_GROUP
350
D
3
ACAD_MLINESTYLE
350
17
0
DICTIONARY
5
D
100
AcDbDictionary
0
DICTIONARY
5
1A
330
C
100
AcDbDictionary
0
DICTIONARY
5
17
100
AcDbDictionary
0
ENDSEC
0
EOF
